PathFileType	4	(X/Y/Z)	data/andrienko/jump_jo 3.trc
DataRate	CameraRate	NumFrames	NumMarkers	Units	OrigDataRate	OrigDataStartFrame	OrigNumFrames
400	400	4	71	mm	400	1	456
Frame#	Time	r_asis			l_asis			r_psis			sacrum			l_psis			r_illiac			r_troch			l_illiac			l_troch			r_thigh1			r_thigh2			r_thigh3			r_thigh4			rl_knee			rm_knee			r_shank1			r_shank2			r_shank3			r_shank4			r_heel			rl_ankle			rm_ankle			r_metatarsal5			r_metatarsal1			l_thigh1			l_thigh2			l_thigh3			l_thigh4			ll_knee			lm_knee			l_shank1			l_shank2			l_shank3			l_shank4			l_heel			ll_ankle			lm_ankle			l_metatarsal5			l_metatarsal1			back_down			neck			back_right			back_left			head_up			head_front			head_left			head_right			r_shoulder			r_humerus1			r_humerus2			r_humerus3			rl_elbow			rm_elbow			r_radius1			r_radius2			r_radius3			rl_wrist			rm_wrist			r_hand			l_shoulder			l_humerus1			l_humerus2			l_humerus3			ll_elbow			lm_elbow			l_radius1			l_radius2			l_radius3			ll_wrist			lm_wrist			l_hand		
		X1	Y1	Z1	X2	Y2	Z2	X3	Y3	Z3	X4	Y4	Z4	X5	Y5	Z5	X6	Y6	Z6	X7	Y7	Z7	X8	Y8	Z8	X9	Y9	Z9	X10	Y10	Z10	X11	Y11	Z11	X12	Y12	Z12	X13	Y13	Z13	X14	Y14	Z14	X15	Y15	Z15	X16	Y16	Z16	X17	Y17	Z17	X18	Y18	Z18	X19	Y19	Z19	X20	Y20	Z20	X21	Y21	Z21	X22	Y22	Z22	X23	Y23	Z23	X24	Y24	Z24	X25	Y25	Z25	X26	Y26	Z26	X27	Y27	Z27	X28	Y28	Z28	X29	Y29	Z29	X30	Y30	Z30	X31	Y31	Z31	X32	Y32	Z32	X33	Y33	Z33	X34	Y34	Z34	X35	Y35	Z35	X36	Y36	Z36	X37	Y37	Z37	X38	Y38	Z38	X39	Y39	Z39	X40	Y40	Z40	X41	Y41	Z41	X42	Y42	Z42	X43	Y43	Z43	X44	Y44	Z44	X45	Y45	Z45	X46	Y46	Z46	X47	Y47	Z47	X48	Y48	Z48	X49	Y49	Z49	X50	Y50	Z50	X51	Y51	Z51	X52	Y52	Z52	X53	Y53	Z53	X54	Y54	Z54	X55	Y55	Z55	X56	Y56	Z56	X57	Y57	Z57	X58	Y58	Z58	X59	Y59	Z59	X60	Y60	Z60	X61	Y61	Z61	X62	Y62	Z62	X63	Y63	Z63	X64	Y64	Z64	X65	Y65	Z65	X66	Y66	Z66	X67	Y67	Z67	X68	Y68	Z68	X69	Y69	Z69	X70	Y70	Z70	X71	Y71	Z71
1	0.0000	-269.966	968.817	474.897	-280.172	973.598	259.692	-461.822	1005.599	469.563	-474.331	1035.438	375.555	-474.429	1011.109	303.357	-333.170	1025.093	534.777	-333.145	847.600	568.720	-347.663	1020.428	207.988	-364.022	851.087	175.309	-341.383	768.764	575.860	-267.688	768.302	553.464	-280.896	640.977	559.625	-339.359	645.954	575.411	-329.807	503.388	571.402	-328.753	473.664	438.773	-407.916	366.300	590.257	-330.172	352.495	583.483	-356.345	246.779	577.281	-416.700	257.814	585.054	-493.556	78.825	518.269	-429.023	93.081	565.867	-404.481	88.263	468.225	-285.503	34.957	576.952	-268.982	35.375	480.685	-405.926	736.609	178.813	-330.954	742.946	170.455	-319.849	619.966	176.002	-386.267	613.860	180.833	-348.454	509.116	175.069	-345.008	477.877	303.170	-444.663	363.551	161.174	-374.587	353.185	155.266	-390.801	250.162	166.573	-450.433	253.099	172.110	-502.548	63.869	233.840	-435.092	88.861	184.845	-415.760	99.436	281.208	-284.536	30.554	172.199	-262.781	37.805	261.382	-485.813	1107.847	376.220	-443.070	1470.409	371.506	-514.784	1331.609	479.207	-515.073	1336.281	280.855	-250.459	1702.548	375.658	-149.991	1587.366	376.644	-245.598	1594.082	278.249	-260.517	1605.623	466.576	-365.083	1453.867	539.117	-296.784	1307.825	630.597	-396.382	1369.685	691.654	-348.712	1279.780	712.902	-358.588	1195.244	783.048	-450.251	1192.419	747.547	-308.662	1138.429	669.811	-346.605	1076.739	767.875	-318.089	1040.214	676.616	-363.005	1011.854	594.013	-322.220	965.717	661.257	-293.533	975.064	589.996	-374.428	1460.977	210.268	-304.249	1305.803	107.105	-408.188	1363.412	49.289	-360.976	1271.864	25.631	-361.737	1212.551	-18.966	-463.854	1191.707	11.507	-384.463	1138.531	118.017	-312.044	1102.536	13.957	-338.376	1048.314	94.750	-322.146	984.130	89.776	-385.709	1018.464	141.127	-326.863	999.461	153.191
2	0.0025	-270.004	968.838	474.890	-280.229	973.589	259.711	-461.824	1005.537	469.598	-474.381	1035.468	375.567	-474.477	1011.034	303.316	-333.169	1025.141	534.732	-333.086	847.581	568.749	-347.684	1020.456	208.066	-364.009	851.086	175.297	-341.360	768.732	575.882	-267.669	768.303	553.449	-280.744	640.860	559.576	-339.326	645.940	575.425	-329.769	503.361	571.395	-328.784	473.660	438.768	-407.933	366.333	590.273	-330.155	352.481	583.488	-356.310	246.783	577.284	-416.703	257.788	585.068	-493.574	78.836	518.283	-429.002	93.006	565.799	-404.505	88.277	468.236	-285.508	34.957	576.952	-268.971	35.403	480.685	-405.910	736.581	178.793	-330.939	742.954	170.461	-319.797	619.970	176.016	-386.224	613.850	180.833	-348.396	509.123	175.091	-344.932	477.848	303.205	-444.625	363.555	161.180	-374.561	353.147	155.282	-390.775	250.152	166.583	-450.411	253.087	172.128	-502.524	63.862	233.829	-435.125	88.898	184.835	-415.758	99.436	281.194	-284.554	30.555	172.188	-262.779	37.816	261.371	-485.833	1107.855	376.203	-443.101	1470.331	371.521	-514.716	1331.603	479.262	-514.926	1336.210	280.839	-250.926	1702.767	375.543	-150.281	1587.726	376.532	-245.972	1594.307	278.181	-260.796	1605.829	466.510	-365.044	1453.898	539.145	-296.678	1307.824	630.567	-396.261	1369.636	691.690	-348.576	1279.691	712.866	-358.464	1195.133	782.962	-450.084	1192.327	747.508	-308.562	1138.217	669.796	-346.619	1076.620	767.910	-318.139	1039.930	676.698	-363.079	1011.584	594.109	-322.220	965.490	661.383	-293.569	974.981	590.153	-374.352	1461.014	210.206	-304.127	1305.762	107.031	-408.178	1363.325	49.319	-360.974	1271.726	25.660	-361.716	1212.364	-18.922	-463.777	1191.576	11.696	-384.236	1138.416	118.143	-312.057	1102.281	13.971	-338.222	1048.137	94.818	-321.990	984.073	89.897	-385.570	1018.267	141.233	-326.700	999.450	153.313
3	0.0050	-270.041	968.871	474.889	-280.312	973.590	259.754	-461.829	1005.474	469.617	-474.420	1035.470	375.600	-474.507	1010.945	303.312	-333.169	1025.136	534.690	-333.073	847.589	568.746	-347.727	1020.495	208.138	-363.985	851.063	175.275	-341.330	768.731	575.917	-267.654	768.287	553.443	-280.732	640.853	559.568	-339.301	645.929	575.428	-329.760	503.342	571.395	-328.798	473.622	438.763	-407.919	366.261	590.294	-330.144	352.461	583.485	-356.297	246.761	577.292	-416.674	257.750	585.083	-493.563	78.828	518.286	-429.020	93.087	565.884	-404.503	88.279	468.237	-285.498	34.939	576.968	-268.979	35.408	480.682	-405.927	736.547	178.785	-330.948	742.925	170.478	-319.768	619.974	176.043	-386.184	613.846	180.834	-348.311	509.112	175.103	-344.889	477.839	303.218	-444.575	363.530	161.195	-374.535	353.135	155.282	-390.763	250.121	166.569	-450.389	253.088	172.129	-502.528	63.861	233.829	-435.120	88.849	184.840	-415.732	99.453	281.182	-284.540	30.570	172.187	-262.774	37.815	261.367	-485.843	1107.867	376.205	-443.138	1470.271	371.518	-514.619	1331.610	479.306	-514.764	1336.129	280.820	-251.413	1702.994	375.455	-150.576	1588.072	376.421	-246.366	1594.464	278.114	-261.049	1606.019	466.426	-364.965	1453.914	539.142	-296.594	1307.791	630.541	-396.140	1369.575	691.729	-348.433	1279.591	712.822	-358.348	1195.004	782.866	-449.965	1192.283	747.447	-308.466	1137.961	669.790	-346.639	1076.492	767.937	-318.163	1039.702	676.770	-363.156	1011.247	594.211	-322.236	965.253	661.478	-293.589	974.916	590.330	-374.302	1461.039	210.176	-304.018	1305.717	106.937	-408.176	1363.187	49.334	-360.904	1271.599	25.641	-361.716	1212.168	-18.879	-463.701	1191.405	11.887	-384.063	1138.253	118.248	-312.035	1102.111	14.005	-338.064	1048.001	94.896	-321.832	983.979	90.051	-385.443	1018.103	141.386	-326.565	999.443	153.423
4	0.0075	-270.109	968.890	474.894	-280.392	973.568	259.785	-461.847	1005.400	469.592	-474.453	1035.485	375.594	-474.591	1010.922	303.302	-333.167	1025.185	534.662	-333.055	847.625	568.753	-347.776	1020.543	208.211	-363.957	851.031	175.260	-341.287	768.703	575.942	-267.626	768.271	553.422	-280.714	640.834	559.558	-339.292	645.901	575.439	-329.727	503.322	571.397	-328.827	473.596	438.752	-407.887	366.260	590.303	-330.129	352.445	583.471	-356.310	246.750	577.293	-416.675	257.742	585.099	-493.578	78.824	518.293	-429.025	93.083	565.874	-404.506	88.277	468.249	-285.500	34.949	576.963	-268.992	35.381	480.701	-405.904	736.552	178.753	-330.931	742.960	170.493	-319.685	619.996	176.064	-386.116	613.845	180.827	-348.217	509.046	175.074	-344.805	477.845	303.240	-444.530	363.534	161.200	-374.480	353.125	155.273	-390.714	250.142	166.551	-450.354	253.084	172.142	-502.536	63.862	233.803	-435.123	88.877	184.822	-415.740	99.459	281.157	-284.548	30.555	172.192	-262.778	37.827	261.362	-485.872	1107.899	376.216	-443.166	1470.190	371.536	-514.563	1331.623	479.356	-514.590	1336.068	280.818	-251.865	1703.333	375.188	-150.863	1588.379	376.308	-246.730	1594.637	278.038	-261.316	1606.228	466.363	-364.903	1453.959	539.168	-296.413	1307.869	630.545	-395.915	1369.599	691.748	-348.476	1279.711	712.784	-358.247	1194.876	782.787	-449.844	1192.193	747.365	-308.376	1137.680	669.764	-346.649	1076.347	767.972	-318.220	1039.414	676.860	-363.240	1010.890	594.325	-322.271	965.031	661.586	-293.607	974.794	590.514	-374.213	1461.060	210.128	-303.863	1305.676	106.840	-408.166	1363.059	49.375	-360.882	1271.446	25.643	-361.701	1211.957	-18.818	-463.626	1191.266	12.099	-383.874	1138.129	118.400	-311.935	1101.990	14.003	-337.934	1047.857	95.004	-321.717	983.848	90.195	-385.295	1017.897	141.557	-326.432	999.411	153.565
